<?xml version="1.0" encoding="utf-8"?>
<!-- Generator: Adobe Illustrator 25.0.0, SVG Export Plug-In . SVG Version: 6.00 Build 0)  -->
<svg version="1.1" id="Livello_2" xmlns="http://www.w3.org/2000/svg" xmlns:xlink="http://www.w3.org/1999/xlink" x="0px" y="0px"
	 viewBox="0 0 410 404" style="enable-background:new 0 0 410 404;" xml:space="preserve">
<style type="text/css">
	.st0{fill:#FFFFFF;}
	.st1{fill:hsl(166, 93%, 48%);stroke:hsl(166, 93%, 48%);stroke-width:8;stroke-miterlimit:10;}
</style>
<path class="st0" d="M315.2,395.8H87.3c-42.4,0-77.1-34.7-77.1-77.1V90.9c0-42.4,34.7-77.1,77.1-77.1h227.9
	c42.4,0,77.1,34.7,77.1,77.1v227.9C392.3,361.2,357.6,395.8,315.2,395.8z"/>
<path class="st1" d="M46.6,280.3c0.6,0,1.2,0.1,1.7,0.5c20,13.8,51.4,32.2,93.9,43.7c8.5,2.3,16,4.3,26.5,5.8
	c52.8,7.5,97.4-9.2,122.6-19.1c9.4-3.7,16.7-7,20.8-8.9c0,0,2.5-1.1,3.9-0.4c4.2,2.3,0,7.6,0,7.6s-24.4,26.7-59.2,37.5
	C221.9,358,193,357.8,193,357.8s-40.2-0.1-67.7-13.5c-9.2-4.5-17.3-8.8-24-12.5c-13.7-7.7-26.7-16.7-38.6-27
	c-6-5.3-12-10.8-14.5-14.2c0,0-4.4-4.4-4.6-7.6C43.6,280.8,45.4,280.4,46.6,280.3z"/>
<path class="st1" d="M285,288.9c0,0,23.4-2.3,30.9-2.3c9.3,0,13.9,1.6,16.2,2.9c1.3,0.8,2.3,2.1,2.6,3.5c1.8,8.3-2.5,20.3-2.5,20.3
	l-8.9,24.3c0,0-2.6,5.7,1.7,4.9s22.6-19.2,28.6-54.2c1.3-7.4-1.4-10.5-1.4-10.5s-2.6-5.4-20.8-5C287.4,274,275.5,289.4,285,288.9z"
	/>
<path d="M117.3,117.8L117.3,117.8c0,0,7.4-29.8,32.1-43.2c33.1-18,66.4-11.4,66.4-11.4s34.6,2.7,51.7,29.3
	c8.8,13.7,7.5,35.7,7.5,35.7l0.1,79.7c1.4,15.9,10.5,25.1,10.5,25.1s5.6,4.9,5.6,10.2c0,1.2-0.5,2.3-1.1,3.3c-0.6,1-1.4,1.8-2.2,2.5
	l-27.9,23.7c-6.9,4.9-11.7-1.7-11.7-1.7s-11.1-10-16.4-18.9l-2.4-3.5c0,0-18,18.9-34.5,23.4c-27.2,7.3-49.6,0.1-55.8-2.5
	c-4.7-2.4-13-7.3-19.1-16.8c-1.3-2-3.8-6.2-5.8-13.4c-4.8-16.9-2.8-33.7,0-43.8c8-29.3,42-41.3,42-41.3
	c26.1-8.5,65.6-10.6,65.6-10.6l0.2-13c-0.1-5.5-0.9-9.7-1.8-12.9c-1.6-5.3-5.3-9.8-10.2-12.4c-18.5-9.7-35.9,4.1-35.9,4.1
	s-6.5,4.4-8,13.9c-1.2,7.6-6,7.8-6,7.8l-14-1.3l-23.3-2.4C123,127.2,116.1,126,117.3,117.8z"/>
<path class="st0" d="M221.8,173.5v26.1c0,0-1.1,21.3-14.8,30.7s-22.2,7.3-22.2,7.3s-11-1.1-16.5-13.8s0.7-28.5,0.7-28.5
	s5-11,14.5-14.8c0,0,5.5-3.5,17-5.3C212,173.3,221.8,173.5,221.8,173.5z"/>
</svg>
