<?xml version="1.0" encoding="utf-8"?>
<!-- Generator: Adobe Illustrator 25.0.0, SVG Export Plug-In . SVG Version: 6.00 Build 0)  -->
<svg version="1.1" id="Livello_1" xmlns="http://www.w3.org/2000/svg" xmlns:xlink="http://www.w3.org/1999/xlink" x="0px" y="0px"
	 viewBox="0 0 1766.7 1065.3" style="enable-background:new 0 0 1766.7 1065.3;" xml:space="preserve">
<g>
	<path d="M340.6,824.4v-90H93.5c-31.2,0-54.6-6.9-70.1-20.8C7.8,699.7,0,680.9,0,657c0-6.1,1.1-12.3,3.4-18.6s5.7-12.9,10.3-19.8
		c4.6-6.9,9.4-13.6,14.3-20.1c4.9-6.4,11-14.4,18.2-23.7l260.9-343.1c17.1-22.6,31.1-39,42.1-49.1c11-10.2,24.2-15.2,39.6-15.2
		c49.9,0,74.8,28.1,74.8,84.2V626h21.2c25.3,0,45.5,3.4,60.8,10.2s22.9,21.6,22.9,44.5c0,18.7-6.2,32.3-18.7,40.9
		c-12.5,8.6-31.2,12.8-56.1,12.8h-30v90c0,24.8-5.6,43.3-16.7,55.4c-11.2,12.1-26.1,18.1-44.8,18.1c-18.4,0-33.2-6.2-44.5-18.6
		C346.3,866.9,340.6,848.6,340.6,824.4z M129,626h211.7V344.9L129,626z"/>
	<path d="M1138.1,538c0,52.9-3.3,98.4-9.8,136.5c-6.6,38.1-18.7,72.6-36.4,103.6c-22.3,38.1-51.2,67.4-86.6,88.1
		c-35.4,20.6-74.8,31-118.1,31c-49.9,0-94.6-13.9-134.1-41.6c-39.5-27.7-69.3-66.1-89.3-115.2c-10.2-26.8-17.6-56.4-22.4-88.8
		c-4.8-32.4-7.1-67.5-7.1-105.2c0-48.7,2.6-92.6,7.9-131.6c5.2-39,13.5-72.6,24.6-100.6c19.4-46.5,47.5-81.9,84.4-106.2
		c36.9-24.4,81-36.5,132.2-36.5c33.8,0,64.5,5.4,92.1,16.2s51.8,26.6,72.6,47.4c20.8,20.8,38.5,46.5,52.9,77.2
		C1125.6,365.2,1138.1,440.5,1138.1,538z M1003.2,528.3c0-59-3.6-107.3-10.8-144.9s-19.4-66-36.4-85.2
		c-17.1-19.2-40.7-28.8-70.9-28.8c-43.3,0-73.4,21.5-90.3,64.4c-16.9,42.9-25.4,109-25.4,198.4c0,60.7,3.6,110.3,10.8,149
		s19.4,68,36.4,87.8c17.1,19.8,40.2,29.8,69.4,29.8c30.2,0,53.8-10.3,70.9-31c17.1-20.6,29-50.2,35.9-88.6
		C999.8,640.9,1003.2,590.5,1003.2,528.3z"/>
	<path d="M1538.8,824.4v-90h-247.1c-31.2,0-54.6-6.9-70.1-20.8c-15.6-13.9-23.4-32.7-23.4-56.6c0-6.1,1.1-12.3,3.4-18.6
		s5.7-12.9,10.3-19.8c4.6-6.9,9.4-13.6,14.3-20.1c4.9-6.4,11-14.4,18.2-23.7l260.9-343.1c17.1-22.6,31.1-39,42.1-49.1
		c11-10.2,24.2-15.2,39.6-15.2c49.9,0,74.8,28.1,74.8,84.2V626h21.2c25.3,0,45.5,3.4,60.8,10.2s22.9,21.6,22.9,44.5
		c0,18.7-6.2,32.3-18.7,40.9c-12.5,8.6-31.2,12.8-56.1,12.8h-30v90c0,24.8-5.6,43.3-16.7,55.4c-11.2,12.1-26.1,18.1-44.8,18.1
		c-18.4,0-33.2-6.2-44.5-18.6S1538.8,848.6,1538.8,824.4z M1327.1,626h211.7V344.9L1327.1,626z"/>
</g>
</svg>
