<?xml version="1.0" encoding="utf-8"?>
<!-- Generator: Adobe Illustrator 25.0.0, SVG Export Plug-In . SVG Version: 6.00 Build 0)  -->
<svg version="1.1" id="Livello_1" xmlns="http://www.w3.org/2000/svg" xmlns:xlink="http://www.w3.org/1999/xlink" x="0px" y="0px"
	 viewBox="0 0 2935.15 1010" style="enable-background:new 0 0 2935.15 1010;" xml:space="preserve">
<style type="text/css">
	.st0{fill:#FFFFFF;}
	.st1{fill:#09ECB7;}
</style>
<path class="st0" d="M298.34,604.14c-3.48,0.88-7.9,3.65-11.38,3.65c-7.9,0-21.08-31.73-25.5-54.4
	c-17.6,18.13-48.37,54.4-114.35,54.4c-80.94,0-131.84-54.4-131.84-139.65c0-153.25,159.98-153.25,229.43-153.25v-28.08
	c0-40.8-7.06-67.11-62.39-67.11c-49.22,0-97.59,27.2-109.08,27.2c-4.43,0-7.9-5.42-8.75-9.07l-17.6-55.28
	c-1.79-3.65-2.63-7.3-2.63-10.84c0-20.9,87.05-42.57,154.71-42.57c109.92,0,151.23,51.64,151.23,145.95v174.92
	c0,87.9,22.87,99.73,22.87,117.86c0,3.65-3.48,6.3-7.9,8.18L298.34,604.14z M244.7,389.31c-22.03,0-123.94-7.3-123.94,72.53
	c0,35.38,24.66,61.59,58.07,61.59c32.56,0,55.43-23.55,65.97-34.5v-99.62H244.7z"/>
<path class="st0" d="M1006.45,579.59c0,9.95-1.79,12.72-12.33,12.72h-87.05c-10.54,0-12.33-2.76-12.33-12.72V300.41
	c0-34.5-3.48-76.18-36.89-76.18c-36.89,0-65.97,26.32-77.36,37.15v318.21c0,9.95-1.79,12.72-12.33,12.72h-87.05
	c-10.54,0-12.33-2.76-12.33-12.72V300.41c0-34.5-3.48-76.18-36.89-76.18c-36.89,0-65.97,26.32-77.36,37.15v318.21
	c0,9.95-1.79,12.72-12.33,12.72h-87.05c-10.54,0-12.33-2.76-12.33-12.72V305.83c0-127.82-16.76-120.52-16.76-141.42
	c0-4.53,3.48-8.18,9.7-9.95l66.82-22.67c5.27-1.77,9.7-2.76,13.17-2.76c11.38,0,18.44,19.9,28.14,62.58
	c26.35-23.55,65.02-62.58,134.48-62.58c37.83,0,79.15,24.44,89.69,62.58c26.35-23.55,64.18-62.58,136.27-62.58
	c82.62,0,102.02,64.35,102.02,143.18v307.38H1006.45z"/>
<path class="st0" d="M1337.05,604.14c-3.48,0.88-7.9,3.65-11.38,3.65c-7.9,0-21.08-31.73-25.5-54.4
	c-17.6,18.13-48.37,54.4-114.35,54.4c-80.94,0-131.84-54.4-131.84-139.65c0-153.25,159.98-153.25,229.43-153.25v-28.08
	c0-40.8-7.06-67.11-62.39-67.11c-49.22,0-97.59,27.2-109.08,27.2c-4.43,0-7.9-5.42-8.75-9.07l-17.6-55.28
	c-1.79-3.65-2.63-7.3-2.63-10.84c0-20.9,87.05-42.57,154.71-42.57c109.92,0,151.23,51.64,151.23,145.95v174.92
	c0,87.9,22.87,99.73,22.87,117.86c0,3.65-3.48,6.3-7.9,8.18L1337.05,604.14z M1283.41,389.31c-22.03,0-123.94-7.3-123.94,72.53
	c0,35.38,24.66,61.59,58.07,61.59c32.57,0,55.43-23.55,65.97-34.5v-99.62H1283.41z"/>
<path class="st0" d="M1781.05,580.48c-2.63,7.3-8.75,11.83-12.33,11.83c-37.94-7.85-87.47-14.93-145.44-15.04
	c-58.91-0.11-108.97,7.08-147.33,15.04c-1.05,0-2.95-0.11-4.74-1.22c-2.53-1.44-4.11-4.31-4.11-7.85v-68l202.24-275.53h-177.58
	c-4.43,0-6.11-5.42-6.11-11.83v-70.65c0-9.07,2.63-12.72,12.33-12.72h278.75c7.06,0,14.97,3.65,14.97,9.07v70.76l-198.66,272.88
	h200.45c16.76,0,16.76,6.3,16.76,9.07c0,4.53-2.63,8.18-3.48,9.95L1781.05,580.48z"/>
<path class="st0" d="M2044.95,579.59c0,9.95-1.79,12.72-12.33,12.72h-87.05c-10.54,0-12.33-2.76-12.33-12.72V228.76h-67.66
	c-10.54,0-12.33-2.76-12.33-12.72v-58.93c0-9.95,1.79-12.72,12.33-12.72h167.04c10.54,0,12.33,2.76,12.33,12.72L2044.95,579.59
	L2044.95,579.59z"/>
<path class="st0" d="M2476.93,579.59c0,9.95-1.79,12.72-12.33,12.72h-87.05c-10.54,0-12.33-2.76-12.33-12.72V300.41
	c0-34.5-4.43-76.18-49.22-76.18c-36.89,0-65.97,26.32-77.35,37.15v318.21c0,9.95-1.79,12.72-12.33,12.72h-87.05
	c-10.54,0-12.33-2.76-12.33-12.72V305.83c0-127.82-16.76-120.52-16.76-141.42c0-4.53,3.48-8.18,9.7-9.95l66.82-22.67
	c5.27-1.77,9.7-2.76,13.17-2.76c11.38,0,18.44,19.9,28.14,62.58c25.5-23.55,65.02-62.58,134.48-62.58
	c48.37,0,114.35,22.67,114.35,132.35v318.21H2476.93z"/>
<path class="st0" d="M2894.27,415.95c0,59.82,4.43,153.25,4.43,204c0,98.85-47.53,164.08-169.68,164.08
	c-68.61,0-182.01-28.97-182.01-48.1c0-6.3,0.84-9.95,3.48-18.13l16.76-55.28c1.79-6.3,5.27-9.07,9.7-9.07
	c10.54,0,64.18,35.38,142.49,35.38c61.55,0,72.09-26.32,72.09-77.07c0-31.73-2.63-53.51-2.63-59.82
	c-13.17,9.07-46.58,34.5-106.34,34.5c-98.43,0-150.39-85.25-150.39-221.14c0-145.95,61.55-236.61,166.2-236.61
	c62.39,0,87.89,28.08,104.65,42.57c2.63-8.18,18.44-42.57,30.77-42.57c2.63,0,6.11,0.88,8.75,1.77l68.61,26.32
	c3.48,1.77,7.9,4.53,7.9,8.18c0,11.83-24.66,44.45-24.66,115.99v135H2894.27z M2788.78,250.99c-11.38-9.07-29.93-27.2-69.45-27.2
	c-52.8,0-75.56,50.75-75.56,137.77c0,82.48,17.6,134.12,70.29,134.12c44.79,0,65.97-22.67,74.72-30.85V250.99z"/>
<ellipse class="st0" cx="1985.82" cy="61.25" rx="66.92" ry="59.93"/>
<path class="st1" d="M197.91,652.06c3.06,0,6.01,0.44,8.54,2.32c101.07,63.47,259.78,148.16,474.56,201.12
	c43,10.61,80.83,19.79,133.95,26.65c266.84,34.5,492.27-42.35,619.68-87.9c47.53-17.03,84.42-32.18,105.07-40.91
	c0,0,12.65-5.09,19.71-1.88c21.18,10.61,0,34.94,0,34.94s-123.3,122.84-299.2,172.49c-176.42,50.64-322.49,49.64-322.49,49.64
	s-203.19-0.44-342.2-62.14c-46.48-20.68-87.47-40.47-121.3-57.5c-69.24-35.38-135-76.84-195.07-124.17
	c-30.35-24.44-60.6-49.64-73.24-65.35c0,0-22.24-20.23-23.29-34.94C182.73,654.27,191.8,652.5,197.91,652.06z"/>
<path class="st1" d="M1402.92,691.64c0,0,118.25-10.61,156.19-10.61c47,0,70.29,7.41,81.89,13.38c6.53,3.65,11.59,9.62,13.17,16.14
	c9.06,38.15-12.65,93.43-12.65,93.43l-45,111.67c0,0-13.17,26.2,8.54,22.56c21.71-3.65,114.24-88.34,144.59-249.33
	c6.53-34.05-7.06-48.32-7.06-48.32s-13.17-24.88-105.07-23C1415.04,622.98,1354.86,693.85,1402.92,691.64z"/>
</svg>
