<?xml version="1.0" encoding="utf-8"?>
<svg version="1.1" id="Livello_2" x="0px" y="0px" viewBox="0 0 410 404" style="enable-background:new 0 0 410 404;" xmlns="http://www.w3.org/2000/svg">
  <style type="text/css">
	.st0{fill:#FFFFFF;}
	.st1{fill:hsl(166, 93%, 48%);stroke:hsl(166, 93%, 48%);stroke-width:8;stroke-miterlimit:10;}
</style>
  <path class="st1" d="M 27.672 282.07 C 28.374 282.07 29.075 282.187 29.66 282.655 C 53.053 298.796 89.78 320.317 139.489 333.768 C 149.431 336.458 158.203 338.798 170.484 340.552 C 232.241 349.324 284.407 329.791 313.882 318.212 C 324.876 313.884 333.415 310.024 338.21 307.802 C 338.21 307.802 341.134 306.516 342.772 307.334 C 347.684 310.024 342.772 316.224 342.772 316.224 C 342.772 316.224 314.233 347.453 273.529 360.085 C 232.709 372.951 198.907 372.717 198.907 372.717 C 198.907 372.717 151.887 372.6 119.722 356.927 C 108.962 351.664 99.488 346.634 91.651 342.306 C 75.627 333.3 60.422 322.774 46.503 310.726 C 39.485 304.527 32.467 298.094 29.543 294.117 C 29.543 294.117 24.397 288.971 24.163 285.228 C 24.163 282.655 26.268 282.187 27.672 282.07 Z" style=""/>
  <path class="st1" d="M 306.513 292.129 C 306.513 292.129 333.883 289.439 342.655 289.439 C 353.532 289.439 358.913 291.31 361.603 292.831 C 363.123 293.767 364.293 295.287 364.644 296.925 C 366.749 306.633 361.72 320.668 361.72 320.668 L 351.31 349.09 C 351.31 349.09 348.269 355.757 353.298 354.822 C 358.328 353.886 379.732 332.365 386.75 291.427 C 388.271 282.772 385.113 279.146 385.113 279.146 C 385.113 279.146 382.072 272.83 360.784 273.298 C 309.32 274.701 295.402 292.714 306.513 292.129 Z" style=""/>
  <path d="M 110.365 92.004 C 110.365 92.004 119.02 57.149 147.91 41.476 C 186.625 20.423 225.574 28.142 225.574 28.142 C 225.574 28.142 266.044 31.3 286.044 62.413 C 296.337 78.437 294.817 104.169 294.817 104.169 L 294.934 197.389 C 296.571 215.986 307.215 226.746 307.215 226.746 C 307.215 226.746 313.765 232.478 313.765 238.677 C 313.765 240.08 313.18 241.367 312.478 242.537 C 311.776 243.706 310.841 244.642 309.905 245.461 L 277.272 273.181 C 269.202 278.912 263.587 271.193 263.587 271.193 C 263.587 271.193 250.604 259.496 244.405 249.086 L 241.598 244.993 C 241.598 244.993 220.545 267.099 201.246 272.362 C 169.432 280.901 143.232 272.479 135.98 269.438 C 130.483 266.631 120.775 260.9 113.64 249.788 C 112.12 247.449 109.196 242.537 106.856 234.115 C 101.242 214.348 103.581 194.698 106.856 182.885 C 116.213 148.615 155.981 134.579 155.981 134.579 C 186.508 124.637 232.709 122.181 232.709 122.181 L 232.943 106.976 C 232.826 100.543 231.89 95.63 230.838 91.887 C 228.966 85.688 224.639 80.425 218.907 77.384 C 197.269 66.038 176.917 82.179 176.917 82.179 C 176.917 82.179 169.315 87.326 167.56 98.437 C 166.157 107.327 160.543 107.561 160.543 107.561 L 144.168 106.04 L 116.915 103.233 C 117.032 102.999 108.962 101.595 110.365 92.004 Z" style="fill: rgb(255, 255, 255);"/>
  <path class="st0" d="M 232.592 157.153 L 232.592 187.681 C 232.592 187.681 231.305 212.594 215.281 223.588 C 199.257 234.583 189.316 232.127 189.316 232.127 C 189.316 232.127 176.45 230.84 170.017 215.986 C 163.584 201.131 170.835 182.651 170.835 182.651 C 170.835 182.651 176.683 169.785 187.795 165.341 C 187.795 165.341 194.228 161.247 207.679 159.141 C 221.13 156.919 232.592 157.153 232.592 157.153 Z" style="fill: rgb(19, 25, 33);"/>
</svg>